<mxfile host="app.diagrams.net" modified="2024-03-23T23:08:44.667Z" agent="Mozilla/5.0 (Windows NT 10.0; Win64; x64) AppleWebKit/537.36 (KHTML, like Gecko) Chrome/123.0.0.0 Safari/537.36" etag="u-UL1l7S8UQqSR3Xnvkh" version="24.0.8" type="device">
  <diagram id="pghMz88fuUXKY7FLWKkx" name="Page-1">
    <mxGraphModel dx="1050" dy="565" grid="0" gridSize="10" guides="1" tooltips="1" connect="1" arrows="1" fold="1" page="1" pageScale="1" pageWidth="850" pageHeight="1100" math="0" shadow="0">
      <root>
        <mxCell id="0" />
        <mxCell id="1" parent="0" />
        <mxCell id="0P3mxNkmxtJpbpny3Y7c-1" value="" style="rounded=0;whiteSpace=wrap;html=1;" parent="1" vertex="1">
          <mxGeometry x="350" y="170" width="190" height="200" as="geometry" />
        </mxCell>
        <mxCell id="0P3mxNkmxtJpbpny3Y7c-2" value="&lt;b&gt;Blog&lt;/b&gt;" style="ellipse;whiteSpace=wrap;html=1;fillColor=#dae8fc;strokeColor=#6c8ebf;" parent="1" vertex="1">
          <mxGeometry x="370" y="210" width="150" height="50" as="geometry" />
        </mxCell>
        <mxCell id="0P3mxNkmxtJpbpny3Y7c-3" value="&lt;b&gt;Solution Visualization&lt;/b&gt;" style="ellipse;whiteSpace=wrap;html=1;fillColor=#dae8fc;strokeColor=#6c8ebf;" parent="1" vertex="1">
          <mxGeometry x="370" y="280" width="150" height="50" as="geometry" />
        </mxCell>
        <mxCell id="0P3mxNkmxtJpbpny3Y7c-4" value="Contestant" style="shape=umlActor;verticalLabelPosition=bottom;verticalAlign=top;html=1;outlineConnect=0;fillColor=#dae8fc;strokeColor=#6c8ebf;" parent="1" vertex="1">
          <mxGeometry x="188" y="152" width="30" height="60" as="geometry" />
        </mxCell>
        <mxCell id="0P3mxNkmxtJpbpny3Y7c-5" value="Problem-Setter" style="shape=umlActor;verticalLabelPosition=bottom;verticalAlign=top;html=1;outlineConnect=0;fillColor=#dae8fc;strokeColor=#6c8ebf;" parent="1" vertex="1">
          <mxGeometry x="191" y="284" width="30" height="60" as="geometry" />
        </mxCell>
        <mxCell id="0P3mxNkmxtJpbpny3Y7c-10" value="" style="endArrow=none;html=1;rounded=0;exitX=0;exitY=0.5;exitDx=0;exitDy=0;" parent="1" source="0P3mxNkmxtJpbpny3Y7c-3" target="0P3mxNkmxtJpbpny3Y7c-4" edge="1">
          <mxGeometry width="50" height="50" relative="1" as="geometry">
            <mxPoint x="170" y="220" as="sourcePoint" />
            <mxPoint x="220" y="170" as="targetPoint" />
          </mxGeometry>
        </mxCell>
        <mxCell id="ztvA4k8g0qmynqEilmCd-3" value="" style="endArrow=none;html=1;rounded=0;entryX=0;entryY=0.5;entryDx=0;entryDy=0;" parent="1" target="0P3mxNkmxtJpbpny3Y7c-2" edge="1">
          <mxGeometry width="50" height="50" relative="1" as="geometry">
            <mxPoint x="219" y="194" as="sourcePoint" />
            <mxPoint x="269" y="144" as="targetPoint" />
          </mxGeometry>
        </mxCell>
        <mxCell id="1h9n6E_nSWgV8ytkBYpk-2" value="IS-A" style="text;html=1;align=center;verticalAlign=middle;whiteSpace=wrap;rounded=0;" vertex="1" parent="1">
          <mxGeometry x="91" y="250" width="60" height="30" as="geometry" />
        </mxCell>
        <mxCell id="1h9n6E_nSWgV8ytkBYpk-3" value="" style="edgeStyle=orthogonalEdgeStyle;rounded=0;orthogonalLoop=1;jettySize=auto;html=1;" edge="1" parent="1">
          <mxGeometry relative="1" as="geometry">
            <Array as="points">
              <mxPoint x="153" y="201" />
              <mxPoint x="153" y="316" />
            </Array>
            <mxPoint x="181" y="201" as="sourcePoint" />
            <mxPoint x="181" y="316" as="targetPoint" />
          </mxGeometry>
        </mxCell>
      </root>
    </mxGraphModel>
  </diagram>
</mxfile>
